<svg xmlns="http://www.w3.org/2000/svg" xmlns:xlink="http://www.w3.org/1999/xlink" preserveAspectRatio="xMidYMid" width="106.97" height="107" viewBox="0 0 106.97 107">
  <defs>
    <style>
      .cls-1 {
        fill: #1dade5;
      }

      .cls-1, .cls-2 {
        fill-rule: evenodd;
      }

      .cls-2 {
        fill: #fff;
      }
    </style>
  </defs>
  <g>
    <path d="M106.983,53.500 C106.983,83.043 83.036,106.993 53.495,106.993 C23.955,106.993 0.007,83.043 0.007,53.500 C0.007,23.957 23.955,0.008 53.495,0.008 C83.036,0.008 106.983,23.957 106.983,53.500 Z" class="cls-1"/>
    <path d="M68.819,65.660 C67.209,67.346 65.265,68.712 63.105,69.659 C60.949,70.597 58.577,71.120 56.048,71.120 C53.588,71.120 51.280,70.623 49.174,69.735 C46.008,68.398 43.293,66.150 41.391,63.324 C39.482,60.498 38.379,57.132 38.379,53.446 C38.379,50.989 38.871,48.683 39.760,46.568 C41.099,43.409 43.348,40.694 46.175,38.789 C48.999,36.884 52.363,35.780 56.048,35.776 C58.577,35.780 60.949,36.299 63.105,37.240 C65.268,38.184 67.209,39.554 68.819,41.236 C71.449,43.987 75.815,44.085 78.572,41.455 C81.323,38.822 81.421,34.456 78.787,31.705 C75.925,28.715 72.476,26.285 68.627,24.601 C64.772,22.919 60.498,21.985 56.048,21.985 C51.721,21.985 47.566,22.866 43.799,24.458 C38.142,26.856 33.353,30.836 29.965,35.851 C26.576,40.864 24.585,46.954 24.592,53.446 C24.585,57.776 25.470,61.929 27.063,65.693 C29.168,70.666 32.489,74.962 36.664,78.230 L36.553,84.696 L36.553,84.778 C36.559,84.902 36.632,85.020 36.744,85.088 C36.861,85.157 36.994,85.160 37.109,85.111 L37.185,85.072 L42.783,81.971 C46.820,83.850 51.326,84.915 56.048,84.912 C60.498,84.912 64.772,83.974 68.627,82.294 C72.476,80.605 75.925,78.181 78.787,75.191 C81.421,72.440 81.323,68.071 78.565,65.441 C75.815,62.811 71.449,62.906 68.819,65.660 Z" class="cls-2"/>
  </g>
</svg>
