<svg xmlns="http://www.w3.org/2000/svg" xmlns:xlink="http://www.w3.org/1999/xlink" preserveAspectRatio="xMidYMid" width="43.969" height="50" viewBox="0 0 43.969 50">
  <defs>
    <style>
      .cls-1 {
        fill-rule: evenodd;
      }
    </style>
  </defs>
  <path d="M43.904,35.038 C43.899,36.219 43.701,37.469 43.272,38.562 C42.274,41.102 42.116,43.423 43.338,46.048 C44.573,48.703 43.681,49.885 40.595,49.911 C29.770,50.004 18.942,50.061 8.120,49.894 C3.095,49.816 0.194,46.691 0.050,41.538 C-0.104,35.987 0.016,30.428 0.016,24.873 C0.012,24.873 0.009,24.873 0.005,24.873 C0.005,19.664 -0.064,14.455 0.023,9.248 C0.126,3.127 2.924,0.131 8.884,0.062 C19.184,-0.059 29.487,-0.017 39.788,0.049 C43.632,0.074 43.887,0.345 43.911,4.310 C43.973,14.552 43.952,24.796 43.904,35.038 ZM8.826,45.573 C8.998,45.593 9.172,45.613 9.345,45.613 C18.208,45.618 27.071,45.594 35.933,45.640 C38.312,45.653 38.746,44.405 38.769,42.349 C38.794,40.107 38.390,38.688 35.704,38.750 C31.363,38.852 27.016,38.778 22.672,38.778 C22.672,38.774 22.672,38.770 22.672,38.766 C19.022,38.766 15.373,38.760 11.723,38.770 C10.681,38.773 9.630,38.744 8.600,38.866 C6.527,39.113 4.694,40.019 4.777,42.312 C4.860,44.591 6.774,45.335 8.826,45.573 ZM36.608,4.323 C27.718,4.398 18.826,4.276 9.936,4.391 C5.827,4.444 4.485,5.707 4.409,9.663 C4.263,17.286 4.362,24.915 4.360,32.542 C4.359,34.098 4.548,34.965 6.710,34.832 C11.564,34.532 16.449,34.738 21.322,34.738 C21.322,34.637 21.322,34.535 21.323,34.434 C26.379,34.434 31.435,34.381 36.489,34.459 C38.727,34.494 39.607,33.549 39.594,31.370 C39.550,23.397 39.542,15.423 39.605,7.450 C39.622,5.308 38.919,4.304 36.608,4.323 ZM31.326,23.919 C25.382,23.937 19.439,23.935 13.496,23.915 C12.035,23.909 11.162,23.277 11.140,21.660 C11.117,19.965 12.078,19.522 13.524,19.524 C16.586,19.527 19.648,19.525 22.709,19.525 C25.592,19.526 28.474,19.528 31.355,19.525 C32.816,19.523 33.745,20.007 33.710,21.689 C33.678,23.315 32.774,23.915 31.326,23.919 ZM31.326,16.347 C25.382,16.364 19.439,16.362 13.496,16.342 C12.035,16.337 11.162,15.704 11.140,14.088 C11.117,12.392 12.078,11.950 13.524,11.951 C16.586,11.954 19.648,11.952 22.709,11.953 C25.592,11.953 28.474,11.955 31.355,11.952 C32.816,11.951 33.745,12.434 33.710,14.117 C33.678,15.742 32.774,16.342 31.326,16.347 Z" class="cls-1"/>
</svg>
