<svg xmlns="http://www.w3.org/2000/svg" xmlns:xlink="http://www.w3.org/1999/xlink" preserveAspectRatio="xMidYMid" width="71" height="47" viewBox="0 0 71 47">
  <defs>
    <style>
      .cls-1 {
        fill-rule: evenodd;
      }
    </style>
  </defs>
  <path d="M20.022,34.334 L20.022,32.501 C20.022,31.994 20.818,31.584 21.801,31.584 L37.222,31.584 C38.205,31.584 39.002,31.994 39.002,32.501 L39.002,34.334 C39.002,34.841 38.205,35.251 37.222,35.251 L21.801,35.251 C20.818,35.251 20.022,34.841 20.022,34.334 ZM43.385,34.334 L43.385,32.501 C43.385,31.994 44.048,31.584 44.865,31.584 L57.687,31.584 C58.505,31.584 59.167,31.994 59.167,32.501 L59.167,34.334 C59.167,34.841 58.505,35.251 57.687,35.251 L44.865,35.251 C44.048,35.251 43.385,34.841 43.385,34.334 ZM43.385,24.299 L43.385,22.465 C43.385,21.959 44.048,21.549 44.865,21.549 L57.687,21.549 C58.505,21.549 59.167,21.959 59.167,22.465 L59.167,24.299 C59.167,24.805 58.505,25.216 57.687,25.216 L44.865,25.216 C44.048,25.216 43.385,24.805 43.385,24.299 ZM43.385,14.494 L43.385,12.660 C43.385,12.154 44.048,11.743 44.865,11.743 L57.687,11.743 C58.505,11.743 59.167,12.154 59.167,12.660 L59.167,14.494 C59.167,15.000 58.505,15.411 57.687,15.411 L44.865,15.411 C44.048,15.411 43.385,15.000 43.385,14.494 ZM22.584,14.828 L36.352,14.828 L36.352,23.528 L22.584,23.528 L22.584,14.828 ZM21.192,26.436 L37.960,26.436 C38.778,26.436 39.440,25.778 39.440,24.967 L39.440,13.213 C39.440,12.401 38.778,11.743 37.960,11.743 L21.192,11.743 C20.375,11.743 19.713,12.401 19.713,13.213 L19.713,24.967 C19.713,25.778 20.375,26.436 21.192,26.436 ZM66.739,42.549 L12.502,42.549 C12.551,42.206 12.577,41.856 12.577,41.500 L12.577,4.762 L66.739,4.762 L66.739,42.549 ZM3.364,41.748 L3.364,7.232 L8.923,7.232 L8.923,41.748 C8.923,42.362 7.676,42.862 6.144,42.862 C4.611,42.862 3.364,42.362 3.364,41.748 ZM68.044,-0.010 L13.795,-0.010 C11.223,-0.010 9.030,1.628 8.216,3.908 L2.945,3.908 C1.310,3.908 -0.014,5.223 -0.014,6.846 L-0.014,40.149 C-0.014,43.935 3.077,47.005 6.890,47.005 L68.044,47.005 C69.678,47.005 71.003,45.689 71.003,44.067 L71.003,2.928 C71.003,1.305 69.678,-0.010 68.044,-0.010 Z" class="cls-1"/>
</svg>
