<?xml version="1.0" encoding="utf-8"?>
<!-- Generator: Adobe Illustrator 19.0.0, SVG Export Plug-In . SVG Version: 6.00 Build 0)  -->
<svg version="1.1" id="圖層_1" xmlns="http://www.w3.org/2000/svg" xmlns:xlink="http://www.w3.org/1999/xlink" x="0px" y="0px"
	 viewBox="0 0 512 512" style="enable-background:new 0 0 512 512;" xml:space="preserve">
<g id="XMLID_2_">
	<path id="XMLID_48_" d="M419,512c-108.7,0-217.3,0-326,0c-9.4-2.4-18.6-4.9-26.6-10.7c-17.8-12.9-26-30.5-25.9-52.3
		c0.1-124,0-247.9,0-371.9c0-5.8-0.1-11.7,0.1-17.5C41.3,36.8,51.4,19.2,71.2,8C77.8,4.2,85.7,2.6,93,0c108.7,0,217.3,0,326,0
		c0.4,0.2,0.8,0.6,1.3,0.7c33.2,7.2,51.2,29.4,51.2,63.4c0,101.3,0,202.6,0,303.9c0,5-0.1,10.1-1.1,14.9
		c-5.9,29.5-29.9,49.1-60,49.1c-65.1,0-130.3,0-195.4,0c-37.5,0-75,0-112.5,0c-5.5,0-10.6,1.2-14.8,4.8c-6.5,5.5-8.8,14.3-5.8,22.2
		c3.2,8.4,10.3,13,20.4,13c103,0,205.9,0,308.9,0c20.2,0,38.7-5.6,55.6-16.7c1.3-0.8,2.6-1.6,4.2-2.6c1.1,19-10.3,40-28,50.1
		C435.6,506.9,427.1,509,419,512z M80.5,395.4c13.9-4.8,27.5-3.4,40.9-3.4c95.6-0.1,191.3,0,286.9,0c15.4,0,23.2-7.7,23.2-22.9
		c0-102,0-204,0-305.9c0-15.4-7.7-23.1-23-23.1c-101.6,0-203.3,0-304.9,0c-15.3,0-23.1,7.7-23.1,23c0,108.8,0,217.6,0,326.4
		C80.5,391.2,80.5,393,80.5,395.4z"/>
	<path id="XMLID_37_" d="M173.4,329c-2,0-3.7,0-5.3,0c-11.3,0-22.6,0-34.7,0c1.9-48.2,23.8-83.5,65.3-107.6
		c-14.9-19.3-19.9-40.9-13.5-64.6c4.4-16.3,14-29.4,27.8-39.1c28-19.5,65.5-16.3,89.9,7.4c23.7,22.9,30.6,62.9,6,95.4
		c42,23.6,64.7,59.2,66.8,108.1c-13.5,0-26.4,0-40,0c-1.1-28-12.7-50.7-36.1-66.8c-15.1-10.4-31.9-14.8-50.1-13.7
		c-21.2,1.4-39.2,9.9-53.8,25.3C181.1,288.9,174,307.5,173.4,329z M284.3,175.8c-0.1-17.3-14-31-31.3-30.8
		c-16.9,0.2-30.7,14.2-30.6,31.1c0.1,17.2,14.2,31,31.4,30.8C270.8,206.8,284.4,192.9,284.3,175.8z"/>
</g>
</svg>
