<?xml version="1.0" encoding="utf-8"?>
<!-- Generator: Adobe Illustrator 19.0.0, SVG Export Plug-In . SVG Version: 6.00 Build 0)  -->
<svg version="1.1" id="圖層_1" xmlns="http://www.w3.org/2000/svg" xmlns:xlink="http://www.w3.org/1999/xlink" x="0px" y="0px"
	 viewBox="0 0 512 512" style="enable-background:new 0 0 512 512;" xml:space="preserve">
<g>
	<path d="M91.7-1.2c108.7,0,217.3,0,326,0c0.4,0.3,0.8,0.7,1.2,0.7c25.8,3,51.4,27.2,51.1,62.5c-0.6,88.3-0.2,176.7-0.3,265
		c0,5.8-0.3,11.7-1.6,17.3c-6.6,27.9-30.4,46-60,46.1c-40.8,0.1-81.7,0-122.5,0c-2,0-3.9,0-6.6,0c0,40.1,0,79.6,0,120
		c-2.4-1.2-4.1-1.9-5.6-2.7c-20.1-10.8-40.2-21.6-60.1-32.6c-3-1.6-5.2-1.6-8.2,0.1c-20.4,11.2-41,22.2-61.5,33.3
		c-1.1,0.6-2,1.5-3,2.3c-0.3,0-0.7,0-1,0c-0.1-2.2-0.3-4.3-0.3-6.5c0-35.8,0-71.7,0-107.5c0-1.9,0-3.9,0-6.3
		c-14.3,0-27.9-0.2-41.6,0.1c-9,0.2-16.6,7.3-18.1,15.9c-1.6,9.4,2.8,19.6,11.8,21.8c8,2,8.5,6.1,8,12.6c-0.4,5.8-0.1,11.7-0.1,17.5
		c0,3.8,0,7.6,0,11.6c-2,0-3.3,0.1-4.6,0c-30.6-1.9-55.1-27.8-55.3-59c-0.3-37.3-0.1-74.7-0.1-112c0-79.7,0-159.3,0-239
		c0-23.5,10.1-41.5,30.4-53.2C76.6,3,84.4,1.4,91.7-1.2z M79.5,353.8c13.9-4.9,27.8-3.2,41.6-3.2c95-0.1,190-0.2,285,0.1
		c14.5,0,24.1-8.4,24.1-23.9c-0.4-88.2-0.2-176.3-0.2-264.5c0-16.1-7.5-23.5-23.5-23.5c-101.2,0-202.3,0.1-303.5-0.2
		c-13.4,0-23.8,8.1-23.7,23.7c0.4,95.2,0.2,190.3,0.2,285.5C79.5,349.5,79.5,351.3,79.5,353.8z M238.9,390.7c-19.9,0-39.4,0-59.3,0
		c0,17.5,0,34.8,0,52c0.6,0,1,0.2,1.2,0.1c6.2-3.3,12.7-6,18.4-10c7.1-5,13.1-4.8,20.1,0c5.9,4.1,12.6,7,19.6,10.7
		C238.9,425.3,238.9,408.1,238.9,390.7z"/>
	<path d="M469.6,411.5c1.2,28.1-23.4,55.5-52.6,58.3c-6.6,0.6-13.3,0.5-20,0.6c-23.8,0.1-47.6,0-71.4,0c-2,0-3.9,0-6.2,0
		c0-13.5,0-26.4,0-40c2.3,0,4.4,0,6.5,0c30-0.1,59.9,0.1,89.9-0.4c18.4-0.3,35.1-6.7,50.4-17c0.8-0.6,1.7-1.1,2.5-1.6
		C468.9,411.3,469.1,411.4,469.6,411.5z"/>
	<path d="M369.7,158.4c-76.6,0-153.1,0-229.9,0c0-13,0-26,0-39.3c76.4,0,152.9,0,229.9,0C369.7,132.1,369.7,145.1,369.7,158.4z"/>
</g>
</svg>
