<?xml version="1.0" encoding="utf-8"?>
<!-- Generator: Adobe Illustrator 19.0.0, SVG Export Plug-In . SVG Version: 6.00 Build 0)  -->
<svg version="1.1" id="圖層_1" xmlns="http://www.w3.org/2000/svg" xmlns:xlink="http://www.w3.org/1999/xlink" x="0px" y="0px"
	 viewBox="128 -15 512 512" style="enable-background:new 128 -15 512 512;" xml:space="preserve">
<g id="XMLID_1_">
	<path id="XMLID_37_" d="M453-14.9c3.2,1.9,6.7,3.5,9.6,6c4.5,3.8,6.6,9.1,6.6,15c0,6.9,0,14,0,21.8c2.6,0,4.6-0.1,6.7,0
		c11.3,0.5,22.9-0.5,33.8,1.8c26.8,5.8,44.8,29.4,45,57.4c0.2,21.9,0,43.6,0,65.5c0,14.1-7.7,23.6-19.7,24.4
		c-11.9,0.9-20.8-6.9-23.2-20.9c-113.4,0-226.7,0-340.6,0c-0.1,1.7-0.2,3.5-0.2,5.2c0,54.2,0,108.2,0,162.4c0,15.6,8.4,24,24.1,24
		c34.1,0,68.3,0,102.5,0c12.3,0,21.3,7.8,22.5,19c1.3,12.1-7.8,23.2-19.9,23.4c-37.9,0.2-75.6,0.6-113.5-0.2
		c-27.5-0.5-52.1-23.6-57.5-51.5c-0.3-1.5-0.7-2.9-1.1-4.3c0-85,0-170,0-255c0.3-1.3,0.7-2.6,1.1-3.8c3.2-15.3,11.1-27.6,23.9-36.7
		c10.3-7.4,21.9-10.9,34.7-10.8c8.4,0.1,16.8,0,25.7,0c0-5.7,0.3-10.7-0.1-15.6c-1-13.1,3.9-22.5,16.7-27.1c3,0,6,0,9,0
		c12.7,4.3,17.9,13.2,17.1,26.4c-0.3,5.2-0.1,10.6-0.1,15.9c57.2,0,113.8,0,170.7,0c0-7.4,0-14.4,0-21.3c0-6.4,2.5-11.7,7.4-15.7
		c2.7-2.1,5.9-3.5,8.9-5.2C446.3-14.9,449.7-14.9,453-14.9z"/>
	<path id="XMLID_32_" d="M362.8,358c0.2-76.6,62.3-138.5,138.7-138.2c76.6,0.2,138.5,62.4,138.3,138.9
		c-0.2,76.5-62.6,138.5-139,138.4C424.5,496.8,362.6,434.6,362.8,358z M479.1,369.4c-0.7-0.4-1-0.5-1.1-0.6
		c-6.5-6.4-12.9-12.9-19.5-19.3c-9.5-9.3-22.5-9.5-31.1-0.6c-8.5,8.7-8.2,21.5,1.1,30.8c11.8,11.9,23.7,23.9,35.7,35.7
		c10.1,10,23.5,9.5,32.8-1.4c22.6-26,45.2-52,67.7-78.2c8.4-9.7,7.7-22.9-1.4-30.8c-9.1-7.9-22.2-6.7-30.7,2.8
		c-6,6.7-11.8,13.5-17.7,20.4C503,341.8,491.2,355.6,479.1,369.4z"/>
</g>
</svg>
