<?xml version="1.0" encoding="utf-8"?>
<!-- Generator: Adobe Illustrator 19.0.0, SVG Export Plug-In . SVG Version: 6.00 Build 0)  -->
<svg version="1.1" id="圖層_1" xmlns="http://www.w3.org/2000/svg" xmlns:xlink="http://www.w3.org/1999/xlink" x="0px" y="0px"
	 viewBox="-393 568.8 54.8 54.8" style="enable-background:new -393 568.8 54.8 54.8;" xml:space="preserve">
<style type="text/css">
	.st0{fill:#F0F0F0;}
	.st1{fill:#FFFFFF;}
</style>
<rect x="-393" y="568.8" class="st0" width="54.8" height="54.8"/>
<circle id="XMLID_908_" class="st1" cx="-365.8" cy="588.7" r="8.2"/>
<path id="XMLID_914_" class="st1" d="M-357,599.8c-1.9-0.2-3.1,0.3-4.8,0.6c-1.6,0.3-3.3,0.6-4.9,0.4c-1.5-0.2-3-0.7-4.4-1
	c-2.5-0.5-5.1,0-7.2,1.4c-0.9,0.6-1.6,1.4-2.2,2.2c-0.2,0.3-2,2.6-1.8,2.8c3.9,4.4,9.8,7.1,16.4,7.1s12.5-2.8,16.4-7.1
	c0.2-0.2-1.5-2.6-1.7-2.9C-352.5,601.5-354.5,600.1-357,599.8z"/>
</svg>
