<?xml version="1.0" encoding="utf-8"?>
<!-- Generator: Adobe Illustrator 19.0.0, SVG Export Plug-In . SVG Version: 6.00 Build 0)  -->
<svg version="1.1" id="圖層_1" xmlns="http://www.w3.org/2000/svg" xmlns:xlink="http://www.w3.org/1999/xlink" x="0px" y="0px"
	 viewBox="-244 216 470 130" style="enable-background:new -244 216 470 130;" xml:space="preserve">
<style type="text/css">
	.st0{fill:#FFFFFF;}
</style>
<g>
	<path class="st0" d="M-206.2,253.5L-206.2,253.5c3.4-3.4,7.5-6.1,12-8.1c4.5-1.9,9.4-2.9,14.5-2.9c5,0,9.8,0.9,14.4,2.8
		c4.6,1.8,8.9,4.7,12.7,8.5c1.2,1.2,2.7,2.2,4.4,2.8c3.2,1.2,6.7,1.2,9.9-0.1c1.6-0.7,3.1-1.6,4.4-3c2.5-2.6,3.8-5.7,3.8-9.2
		s-1.3-6.7-3.9-9.2c-6.3-6.3-13.5-11.1-21.4-14.3c-7.8-3.2-16-4.8-24.3-4.8c-6.2,0-12.1,0.8-17.7,2.4c-5.6,1.6-10.8,3.9-15.6,6.8
		c-4.7,2.9-9.1,6.4-12.9,10.4c-3.8,4-7.1,8.4-9.7,13.2c-2.7,4.7-4.7,9.9-6.2,15.2c-1.4,5.4-2.2,11-2.2,16.6c0,5.9,0.8,11.7,2.3,17.1
		s3.7,10.6,6.4,15.3c2.8,4.8,6.1,9.2,10,13.1c1.9,1.9,3.9,3.7,6,5.3l-0.2,12.7v0.2c0,0.2,0.2,0.5,0.4,0.6s0.5,0.1,0.7,0l0.1-0.1
		l11-6.1c3.2,1.5,6.6,2.8,10.1,3.8c5.4,1.5,11.1,2.3,16.9,2.3c8.4,0,16.6-1.6,24.5-4.7s15.1-7.9,21.6-14.3c1.2-1.2,2.2-2.7,2.8-4.4
		c0.6-1.6,0.9-3.2,0.9-4.9c0-1.7-0.3-3.4-1-5s-1.6-3.1-2.9-4.4c-1.3-1.3-2.7-2.2-4.4-2.8c-3.2-1.1-6.6-1.1-9.8,0.1
		c-1.7,0.6-3.1,1.6-4.3,2.8c-4,3.9-8.4,6.8-12.9,8.6c-4.5,1.8-9.3,2.6-14.3,2.6c-5.3-0.1-10.3-1.1-14.9-3.2
		c-4.5-2.1-8.5-4.9-11.9-8.3c-3.3-3.5-6-7.5-7.9-12.1s-2.8-9.4-2.8-14.5c0-5.3,1-10.3,3-14.9C-212.4,260.9-209.6,256.9-206.2,253.5z
		"/>
	<path class="st0" d="M-114.8,339.5c1.2,1.3,2.7,2.3,4.4,3.1c1.7,0.7,3.4,1.1,5.2,1.1c0.1,0,0.2,0,0.4,0c1.6,0,3.2-0.3,4.7-0.8
		c1.6-0.6,3.1-1.5,4.4-2.7s2.3-2.6,3.1-4.4l6.3-15.1h50.1l6.4,15.1c0,0,0,0,0.1,0.1c0.8,1.7,1.9,3.1,3.1,4.3
		c1.3,1.2,2.8,2.1,4.4,2.7s3.4,0.9,5.1,0.9c1.8,0,3.5-0.4,5.3-1.2c3.4-1.6,5.6-4.1,6.7-7.5c1-3.3,0.8-6.6-0.6-9.9l-43.5-100.4l0,0
		c-1.1-2.5-2.8-4.4-4.9-5.8c-2.1-1.4-4.5-2.1-7.1-2.1c-2.7,0-5.2,0.7-7.3,2.1c-2.1,1.4-3.7,3.4-4.8,5.9l-43.3,100.3
		c-0.7,1.6-1.1,3.3-1.2,5c-0.1,1.8,0.1,3.5,0.6,5C-116.8,336.8-115.9,338.3-114.8,339.5z M-61.3,260.9l14.1,33.8h-28.3L-61.3,260.9z
		"/>
	<path class="st0" d="M30.9,342.7c1.6-0.7,3-1.6,4.2-2.7s2.2-2.4,2.9-4.2c0.6-1.5,1.1-3.1,1.1-5.2v-20h19.4l25.3,29.3
		c0,0.1,0.1,0.1,0.1,0.1c2.5,2.5,5.5,3.8,8.9,3.8c3.3,0,6.3-1.3,8.8-3.9c1.3-1.2,2.3-2.7,3-4.4c0.6-1.6,1-3.2,1-4.9
		c0-1.7-0.3-3.4-0.9-5.1c-0.6-1.6-1.6-3-2.8-4.4l-15.2-18.3c2.5-1.5,4.8-3.3,7-5.3c3.1-2.8,5.8-6,8-9.4c2.2-3.5,4-7.3,5.2-11.4
		s1.8-8.5,1.8-13c0-6.6-1.3-12.9-3.8-18.6c-2.5-5.7-6-10.7-10.3-14.9l0,0c-4.3-4.1-9.3-7.5-15.4-10c-5.7-2.3-12-3.7-18.7-3.7H25.8
		c-2,0-3.7,0.5-5.2,1.1c-1.6,0.7-3,1.7-4.1,2.8c-1.3,1.3-2,2.9-2.5,4.2c-0.8,1.8-0.8,3.7-0.8,5.3v100.8c0,1.6,0,3.4,0.8,5.2
		c0.8,1.7,1.6,3.1,2.7,4.1c1.2,1.2,2.5,2.1,4,2.7c1.6,0.7,3.3,1.1,5.2,1.1C27.6,343.8,29.3,343.4,30.9,342.7z M39.1,242.7h21.7
		c2.6,0,5.3,0.7,8.3,1.9c2.5,1,4.8,2.6,6.8,4.6c1.9,1.8,3.4,4.1,4.6,6.7c1.1,2.5,1.7,5.2,1.7,7.9c0,2.7-0.5,5.3-1.6,7.7
		c-1.1,2.4-2.6,4.5-4.5,6.3c-2,1.8-4.3,3.3-6.9,4.3c-2.6,1.1-5.4,1.6-8.4,1.6H39.1V242.7z"/>
	<path class="st0" d="M143.1,343.7h67h0.2c0.1,0,0.2,0,0.3,0c1.4,0,3-0.2,4.6-0.9c1.8-0.8,3.1-1.7,4.2-2.8c1.2-1.2,2.1-2.6,2.7-4.1
		c0.7-1.6,1.1-3.3,1.1-5.2c0-1.8-0.4-3.5-1-5.1c-0.7-1.6-1.6-3-2.7-4.2l0,0c-1.1-1.2-2.4-2-4.2-2.8c-1.5-0.7-3.2-0.9-5.2-0.9h-53
		v-26h40.8c1.4,0,3.3-0.1,5.2-0.9c1.7-0.7,3.1-1.6,4.3-2.7c1.2-1.2,2.1-2.5,2.8-4c0.7-1.6,1.1-3.3,1.1-5.2c0-1.8-0.3-3.5-1-5.2
		c-0.7-1.6-1.6-3.1-2.8-4.3c-1.4-1.4-3-2.3-4.2-2.8c-1.8-0.8-3.7-0.9-5.3-0.9h-40.9v-23h53c1.6,0,3.3,0,5.1-0.7
		c1.8-0.8,3.1-1.6,4.2-2.7c1.2-1.2,2.1-2.5,2.7-4c0.7-1.6,1.1-3.3,1.1-5.2c0-1.8-0.4-3.6-1-5.2c-0.7-1.6-1.6-3-2.7-4.2
		c-1.1-1.1-2.4-2.2-4.2-2.9c-1.5-0.6-3.2-1.1-5.1-1.1h-66.1c-2,0-3.7,0.5-5.2,1.1c-1.7,0.7-3.1,1.7-4.2,2.9
		c-0.9,0.9-2.3,2.4-3.1,4.2c-0.6,1.3-1.3,3.2-1.3,5.3v100.4c0,3.4,1.3,6.5,3.8,9.1C136.3,342.2,139.7,343.7,143.1,343.7z"/>
</g>
</svg>
